<?xml version="1.0" encoding="UTF-8"?>
<!-- Generator: Adobe Illustrator 28.0.0, SVG Export Plug-In . SVG Version: 6.00 Build 0)  -->
<svg xmlns="http://www.w3.org/2000/svg" xmlns:xlink="http://www.w3.org/1999/xlink" version="1.1" id="Calque_1" x="0px" y="0px" viewBox="0 0 595.3 337.3" style="enable-background:new 0 0 595.3 337.3;" xml:space="preserve">
<style type="text/css">
	.st0{fill:#004F91;}
	.st1{fill:#CA631F;}
</style>
<g>
	<g>
		<path class="st0" d="M410.4,270l-1.3,2.1c-2.3-1.5-3.8-2-5.9-2c-3,0-4.8,1.5-4.8,4c0,1.9,1.2,3.1,4,3.9l2.8,0.9    c2.1,0.7,3.3,1.3,4.3,2.4c1,1.1,1.6,2.7,1.6,4.3c0,2.3-1.2,4.4-3.3,5.8c-1.6,1-3.2,1.5-5.4,1.5c-2.9,0-5.4-0.7-7.7-2.2l1.3-2.3    c2,1.4,4,2.1,6.5,2.1c1.8,0,2.8-0.3,3.8-1.1c1.2-0.9,1.7-2,1.7-3.5c0-2.1-1.4-3.6-4.3-4.5l-2.4-0.7c-2.2-0.7-3.3-1.2-4.3-2.1    c-1-1.1-1.5-2.4-1.5-3.9c0-4.1,3.1-6.9,7.8-6.9C405.7,267.6,408.1,268.4,410.4,270z"></path>
		<path class="st0" d="M417.5,288c1.3,0,2.4,1,2.4,2.3c0,1.3-1.1,2.4-2.3,2.4c-1.3,0-2.4-1.1-2.4-2.4C415.2,289,416.2,288,417.5,288    z"></path>
		<path class="st0" d="M434.2,268.2l8,24.2h-3.3l-2.3-7.4h-9l-2.3,7.4h-2.9l8.1-24.2H434.2z M428.4,282.5h7.5c0,0-1.9-6-2.5-8.1    l-1.2-3.7l-1.2,3.6C430.9,274.7,428.4,282.5,428.4,282.5z"></path>
		<path class="st0" d="M447,288c1.3,0,2.4,1,2.4,2.3c0,1.3-1.1,2.4-2.3,2.4c-1.3,0-2.4-1.1-2.4-2.4C444.7,289,445.7,288,447,288z"></path>
	</g>
	<g>
		<path class="st0" d="M107.8,129.3l26,78.6h-10.7l-7.4-24.2H86.4l-7.6,24.2h-9.5l26.2-78.6H107.8z M89,176h24.3    c0,0-6.2-19.6-8.2-26.4l-3.8-12.1l-3.9,11.6C96.9,150.7,89,176,89,176z"></path>
		<path class="st0" d="M170.1,129.3h21.8c8.5,0,12.9,0.9,17.2,3.7c6.6,4.4,10.1,10.9,10.1,18.8c0,8-2.3,13.9-7.3,18.7    c-4,3.9-8.5,6.2-18.8,6.2h-13.7v31.3h-9.2V129.3z M179.3,137.2v31.7h13.2c6.6,0,9.6-1.3,12.3-4.2c2.7-3.1,4-6.6,4-11.1    c0-5.8-1.4-9.7-4.6-12.5c-3.2-2.8-7.4-3.9-14.9-3.9H179.3z"></path>
		<path class="st0" d="M257.3,129.3h9.2v78.6h-9.2V129.3z"></path>
		<path class="st0" d="M305.7,129.3h11.1l15.7,29.1l15-29.1h11L338.8,165l24.7,42.8h-11.3l-19.5-36.1l-18.4,36.1h-11l23.3-42.2    L305.7,129.3z"></path>
	</g>
	<path class="st1" d="M325,272.8c-8.5,3.1-19.9,6.7-29.2,9.4c-82.2,24.5-161.7,27.8-178.5,28.2l0,0.3c17.4,0.9,101.5,3.5,194.4-23.7   c104.5-30.6,173.3-80.8,199.9-128.3C553.6,83.8,505,8.3,346,29.8c-45.2,6.1-131.8,25.6-223,84.1l0.1,0.2   C150.8,98.4,238.1,59,348,46.4l0,0.1c69.7-5,125.7,11.8,139.2,51.6C506.8,155.5,435.2,232.2,325,272.8z"></path>
	<g>
		<path class="st0" d="M83.8,227.4c-0.1,0.2-0.2,0.4-0.4,0.5c-0.2,0.1-0.3,0.1-0.5,0.1s-0.4-0.1-0.7-0.3c-0.3-0.2-0.6-0.4-0.9-0.6    c-0.4-0.2-0.8-0.4-1.3-0.6c-0.5-0.2-1-0.3-1.7-0.3c-0.6,0-1.1,0.1-1.5,0.2s-0.8,0.4-1.1,0.6c-0.3,0.3-0.5,0.6-0.7,0.9    c-0.1,0.4-0.2,0.8-0.2,1.2c0,0.6,0.1,1,0.4,1.4c0.3,0.4,0.7,0.7,1.2,1c0.5,0.3,1.1,0.5,1.7,0.7c0.6,0.2,1.3,0.4,1.9,0.7    c0.7,0.2,1.3,0.5,1.9,0.8s1.2,0.7,1.7,1.2c0.5,0.5,0.9,1.1,1.2,1.7s0.4,1.5,0.4,2.5c0,1.1-0.2,2.1-0.5,3c-0.4,0.9-0.9,1.7-1.5,2.4    c-0.7,0.7-1.5,1.2-2.5,1.6s-2.1,0.6-3.4,0.6c-0.7,0-1.4-0.1-2.1-0.2c-0.7-0.1-1.4-0.4-2-0.6c-0.6-0.3-1.2-0.6-1.8-1    s-1.1-0.8-1.5-1.3l1.2-2.1c0.1-0.2,0.3-0.3,0.4-0.4c0.2-0.1,0.3-0.2,0.5-0.2c0.3,0,0.5,0.1,0.9,0.3c0.3,0.2,0.7,0.5,1.1,0.7    c0.4,0.3,0.9,0.5,1.5,0.7c0.6,0.2,1.2,0.3,2,0.3c1.2,0,2.1-0.3,2.8-0.9s1-1.5,1-2.6c0-0.6-0.1-1.1-0.4-1.5c-0.3-0.4-0.7-0.7-1.2-1    s-1.1-0.5-1.7-0.7c-0.6-0.2-1.3-0.4-1.9-0.6c-0.7-0.2-1.3-0.5-1.9-0.8c-0.6-0.3-1.2-0.7-1.7-1.2c-0.5-0.5-0.9-1.1-1.2-1.8    s-0.4-1.6-0.4-2.7c0-0.9,0.2-1.7,0.5-2.5c0.3-0.8,0.8-1.5,1.4-2.2c0.6-0.6,1.4-1.1,2.3-1.5c0.9-0.4,2-0.6,3.2-0.6    c1.3,0,2.6,0.2,3.7,0.7c1.1,0.4,2.1,1,2.9,1.8L83.8,227.4z"></path>
		<path class="st0" d="M129,223.1v3.5h-10.1v6.6h7.9v3.4h-7.9v6.7H129v3.5h-14.4v-23.7H129z M128.1,217.4l-4.7,3.5    c-0.1,0.1-0.2,0.2-0.3,0.2s-0.2,0.1-0.3,0.1s-0.2,0.1-0.3,0.1c-0.1,0-0.2,0-0.4,0H119l3.1-3.3c0.1-0.1,0.2-0.2,0.4-0.3    c0.1-0.1,0.2-0.2,0.3-0.2s0.2-0.1,0.4-0.1c0.1,0,0.3,0,0.5,0H128.1z"></path>
		<path class="st0" d="M161.5,223.1c0.1,0,0.2,0,0.3,0.1s0.2,0.1,0.3,0.2c0.1,0.1,0.2,0.2,0.3,0.4l11.9,15.8c0-0.4-0.1-0.8-0.1-1.1    c0-0.4,0-0.7,0-1v-14.4h3.7v23.7h-2.2c-0.3,0-0.6-0.1-0.8-0.2c-0.2-0.1-0.4-0.3-0.6-0.6l-11.9-15.8c0,0.4,0.1,0.7,0.1,1    c0,0.3,0,0.7,0,0.9v14.6h-3.7v-23.7h2.2C161.2,223.1,161.3,223.1,161.5,223.1z"></path>
		<path class="st0" d="M223,223.1v3.5h-10.1v6.6h7.9v3.4h-7.9v6.7H223v3.5h-14.4v-23.7H223z M222.1,217.4l-4.7,3.5    c-0.1,0.1-0.2,0.2-0.3,0.2s-0.2,0.1-0.3,0.1s-0.2,0.1-0.3,0.1c-0.1,0-0.2,0-0.4,0h-3.1l3.1-3.3c0.1-0.1,0.2-0.2,0.4-0.3    c0.1-0.1,0.2-0.2,0.3-0.2s0.2-0.1,0.4-0.1c0.1,0,0.3,0,0.5,0H222.1z"></path>
		<path class="st0" d="M263.3,243.5c1,0,1.8-0.1,2.5-0.3c0.7-0.2,1.4-0.4,2-0.7v-4.3h-2.8c-0.3,0-0.5-0.1-0.6-0.2    c-0.2-0.2-0.2-0.4-0.2-0.6v-2.5h7.6v9.6c-0.6,0.4-1.2,0.8-1.8,1.1s-1.3,0.6-2,0.8c-0.7,0.2-1.5,0.4-2.3,0.5    c-0.8,0.1-1.7,0.2-2.6,0.2c-1.7,0-3.2-0.3-4.6-0.9c-1.4-0.6-2.6-1.4-3.6-2.5c-1-1.1-1.8-2.3-2.4-3.8c-0.6-1.5-0.9-3.1-0.9-4.9    c0-1.8,0.3-3.4,0.8-4.9c0.6-1.5,1.3-2.8,2.4-3.8c1-1.1,2.3-1.9,3.7-2.5c1.5-0.6,3.1-0.9,4.9-0.9c1.9,0,3.5,0.3,4.8,0.9    c1.4,0.6,2.5,1.3,3.5,2.2l-1.2,2c-0.2,0.4-0.6,0.6-1,0.6c-0.3,0-0.5-0.1-0.8-0.3c-0.3-0.2-0.7-0.4-1-0.6s-0.7-0.4-1.2-0.5    c-0.4-0.2-0.9-0.3-1.4-0.4c-0.5-0.1-1.1-0.1-1.8-0.1c-1.1,0-2.1,0.2-3,0.6c-0.9,0.4-1.7,1-2.3,1.7c-0.6,0.7-1.1,1.6-1.5,2.6    c-0.3,1-0.5,2.2-0.5,3.4c0,1.4,0.2,2.6,0.6,3.6c0.4,1.1,0.9,2,1.5,2.7c0.7,0.7,1.4,1.3,2.4,1.7    C261.2,243.3,262.2,243.5,263.3,243.5z"></path>
		<path class="st0" d="M321.7,246.8h-3.3c-0.4,0-0.7-0.1-0.9-0.3c-0.2-0.2-0.4-0.4-0.5-0.7l-1.7-4.8h-9.4l-1.7,4.8    c-0.1,0.3-0.2,0.5-0.5,0.7c-0.2,0.2-0.5,0.3-0.9,0.3h-3.3l8.9-23.7h4.3L321.7,246.8z M307,237.8h7.3l-2.8-7.9    c-0.1-0.3-0.3-0.8-0.4-1.2c-0.2-0.5-0.3-1-0.4-1.5c-0.1,0.6-0.3,1.1-0.4,1.6c-0.1,0.5-0.3,0.9-0.4,1.3L307,237.8z"></path>
		<path class="st0" d="M354.4,243.1h9.1v3.6h-13.3v-23.7h4.2V243.1z"></path>
	</g>
</g>
</svg>
