<svg width="24" height="29" xmlns="http://www.w3.org/2000/svg" xmlns:xlink="http://www.w3.org/1999/xlink" xml:space="preserve" overflow="hidden"><defs><clipPath id="clip0"><rect x="40" y="56" width="24" height="29"/></clipPath><clipPath id="clip1"><rect x="40" y="56" width="24" height="29"/></clipPath></defs><g clip-path="url(#clip0)" transform="translate(-40 -56)"><g clip-path="url(#clip1)"><path d="M23.4375 18.1875 0.5625 18.1875C0.355393 18.1875 0.1875 18.0196 0.1875 17.8125 0.1875 17.6054 0.355393 17.4375 0.5625 17.4375L23.4375 17.4375C23.6446 17.4375 23.8125 17.6054 23.8125 17.8125 23.8125 18.0196 23.6446 18.1875 23.4375 18.1875Z" fill="#FFFFFF" fill-rule="nonzero" fill-opacity="1" transform="matrix(1 0 0 1.52025 40 52.008)"/><path d="M23.0625 18.1875 0.9375 18.1875C0.730511 18.1876 0.562616 18.0199 0.5625 17.8129 0.5625 17.8128 0.5625 17.8127 0.5625 17.8125L0.5625 9.5625C0.562384 9.3555 0.730084 9.18761 0.937072 9.1875 0.937215 9.1875 0.937357 9.1875 0.9375 9.1875L23.0625 9.1875C23.2695 9.18739 23.4374 9.35509 23.4375 9.56209 23.4375 9.5622 23.4375 9.56235 23.4375 9.5625L23.4375 17.8125C23.4376 18.0195 23.2699 18.1874 23.0629 18.1875 23.0628 18.1875 23.0627 18.1875 23.0625 18.1875ZM1.3125 17.4375 22.6875 17.4375 22.6875 9.9375 1.3125 9.9375Z" fill="#FFFFFF" fill-rule="nonzero" fill-opacity="1" transform="matrix(1 0 0 1.52025 40 52.008)"/><path d="M21.9375 18.1875 17.8125 18.1875C17.6055 18.1876 17.4376 18.0199 17.4375 17.8129 17.4375 17.8128 17.4375 17.8127 17.4375 17.8125L17.4375 11.0625C17.4374 10.8555 17.6051 10.6876 17.8121 10.6875 17.8122 10.6875 17.8123 10.6875 17.8125 10.6875L21.9375 10.6875C22.1445 10.6874 22.3124 10.8551 22.3125 11.0621 22.3125 11.0622 22.3125 11.0623 22.3125 11.0625L22.3125 17.8125C22.3126 18.0195 22.1449 18.1874 21.9379 18.1875 21.9378 18.1875 21.9377 18.1875 21.9375 18.1875ZM18.1875 17.4375 21.5625 17.4375 21.5625 11.4375 18.1875 11.4375Z" fill="#FFFFFF" fill-rule="nonzero" fill-opacity="1" transform="matrix(1 0 0 1.52025 40 52.008)"/><path d="M16.6875 18.1875 12.5625 18.1875C12.3555 18.1876 12.1876 18.0199 12.1875 17.8129 12.1875 17.8128 12.1875 17.8127 12.1875 17.8125L12.1875 11.0625C12.1874 10.8555 12.3551 10.6876 12.5621 10.6875 12.5622 10.6875 12.5623 10.6875 12.5625 10.6875L16.6875 10.6875C16.8945 10.6874 17.0624 10.8551 17.0625 11.0621 17.0625 11.0622 17.0625 11.0623 17.0625 11.0625L17.0625 17.8125C17.0626 18.0195 16.8949 18.1874 16.6879 18.1875 16.6878 18.1875 16.6877 18.1875 16.6875 18.1875ZM12.9375 17.4375 16.3125 17.4375 16.3125 11.4375 12.9375 11.4375Z" fill="#FFFFFF" fill-rule="nonzero" fill-opacity="1" transform="matrix(1 0 0 1.52025 40 52.008)"/><path d="M11.4375 18.1875 7.3125 18.1875C7.1055 18.1876 6.93761 18.0199 6.9375 17.8129 6.9375 17.8128 6.9375 17.8127 6.9375 17.8125L6.9375 11.0625C6.93739 10.8555 7.10509 10.6876 7.31209 10.6875 7.3122 10.6875 7.31235 10.6875 7.3125 10.6875L11.4375 10.6875C11.6445 10.6874 11.8124 10.8551 11.8125 11.0621 11.8125 11.0622 11.8125 11.0623 11.8125 11.0625L11.8125 17.8125C11.8126 18.0195 11.6449 18.1874 11.4379 18.1875 11.4378 18.1875 11.4377 18.1875 11.4375 18.1875ZM7.6875 17.4375 11.0625 17.4375 11.0625 11.4375 7.6875 11.4375Z" fill="#FFFFFF" fill-rule="nonzero" fill-opacity="1" transform="matrix(1 0 0 1.52025 40 52.008)"/><path d="M6.1875 18.1875 2.0625 18.1875C1.85551 18.1876 1.68762 18.0199 1.6875 17.8129 1.6875 17.8128 1.6875 17.8127 1.6875 17.8125L1.6875 11.0625C1.68738 10.8555 1.85508 10.6876 2.06207 10.6875 2.06221 10.6875 2.06236 10.6875 2.0625 10.6875L6.1875 10.6875C6.3945 10.6874 6.56239 10.8551 6.5625 11.0621 6.5625 11.0622 6.5625 11.0623 6.5625 11.0625L6.5625 17.8125C6.56261 18.0195 6.39491 18.1874 6.18791 18.1875 6.1878 18.1875 6.18765 18.1875 6.1875 18.1875ZM2.4375 17.4375 5.8125 17.4375 5.8125 11.4375 2.4375 11.4375Z" fill="#FFFFFF" fill-rule="nonzero" fill-opacity="1" transform="matrix(1 0 0 1.52025 40 52.008)"/><path d="M6.1875 12.5625 2.0625 12.5625C1.8554 12.5625 1.6875 12.3946 1.6875 12.1875 1.6875 11.9804 1.8554 11.8125 2.0625 11.8125L6.1875 11.8125C6.39461 11.8125 6.5625 11.9804 6.5625 12.1875 6.5625 12.3946 6.39461 12.5625 6.1875 12.5625Z" fill="#FFFFFF" fill-rule="nonzero" fill-opacity="1" transform="matrix(1 0 0 1.52025 40 52.008)"/><path d="M6.1875 13.6875 2.0625 13.6875C1.8554 13.6875 1.6875 13.5196 1.6875 13.3125 1.6875 13.1054 1.8554 12.9375 2.0625 12.9375L6.1875 12.9375C6.39461 12.9375 6.5625 13.1054 6.5625 13.3125 6.5625 13.5196 6.39461 13.6875 6.1875 13.6875Z" fill="#FFFFFF" fill-rule="nonzero" fill-opacity="1" transform="matrix(1 0 0 1.52025 40 52.008)"/><path d="M6.1875 14.8125 2.0625 14.8125C1.8554 14.8125 1.6875 14.6446 1.6875 14.4375 1.6875 14.2304 1.8554 14.0625 2.0625 14.0625L6.1875 14.0625C6.39461 14.0625 6.5625 14.2304 6.5625 14.4375 6.5625 14.6446 6.39461 14.8125 6.1875 14.8125Z" fill="#FFFFFF" fill-rule="nonzero" fill-opacity="1" transform="matrix(1 0 0 1.52025 40 52.008)"/><path d="M6.1875 15.9375 2.0625 15.9375C1.8554 15.9375 1.6875 15.7696 1.6875 15.5625 1.6875 15.3554 1.8554 15.1875 2.0625 15.1875L6.1875 15.1875C6.39461 15.1875 6.5625 15.3554 6.5625 15.5625 6.5625 15.7696 6.39461 15.9375 6.1875 15.9375Z" fill="#FFFFFF" fill-rule="nonzero" fill-opacity="1" transform="matrix(1 0 0 1.52025 40 52.008)"/><path d="M6.1875 17.0625 2.0625 17.0625C1.8554 17.0625 1.6875 16.8946 1.6875 16.6875 1.6875 16.4804 1.8554 16.3125 2.0625 16.3125L6.1875 16.3125C6.39461 16.3125 6.5625 16.4804 6.5625 16.6875 6.5625 16.8946 6.39461 17.0625 6.1875 17.0625Z" fill="#FFFFFF" fill-rule="nonzero" fill-opacity="1" transform="matrix(1 0 0 1.52025 40 52.008)"/><path d="M11.4375 12.5625 7.3125 12.5625C7.10539 12.5625 6.9375 12.3946 6.9375 12.1875 6.9375 11.9804 7.10539 11.8125 7.3125 11.8125L11.4375 11.8125C11.6446 11.8125 11.8125 11.9804 11.8125 12.1875 11.8125 12.3946 11.6446 12.5625 11.4375 12.5625Z" fill="#FFFFFF" fill-rule="nonzero" fill-opacity="1" transform="matrix(1 0 0 1.52025 40 52.008)"/><path d="M11.4375 13.6875 7.3125 13.6875C7.10539 13.6875 6.9375 13.5196 6.9375 13.3125 6.9375 13.1054 7.10539 12.9375 7.3125 12.9375L11.4375 12.9375C11.6446 12.9375 11.8125 13.1054 11.8125 13.3125 11.8125 13.5196 11.6446 13.6875 11.4375 13.6875Z" fill="#FFFFFF" fill-rule="nonzero" fill-opacity="1" transform="matrix(1 0 0 1.52025 40 52.008)"/><path d="M11.4375 14.8125 7.3125 14.8125C7.10539 14.8125 6.9375 14.6446 6.9375 14.4375 6.9375 14.2304 7.10539 14.0625 7.3125 14.0625L11.4375 14.0625C11.6446 14.0625 11.8125 14.2304 11.8125 14.4375 11.8125 14.6446 11.6446 14.8125 11.4375 14.8125Z" fill="#FFFFFF" fill-rule="nonzero" fill-opacity="1" transform="matrix(1 0 0 1.52025 40 52.008)"/><path d="M11.4375 15.9375 7.3125 15.9375C7.10539 15.9375 6.9375 15.7696 6.9375 15.5625 6.9375 15.3554 7.10539 15.1875 7.3125 15.1875L11.4375 15.1875C11.6446 15.1875 11.8125 15.3554 11.8125 15.5625 11.8125 15.7696 11.6446 15.9375 11.4375 15.9375Z" fill="#FFFFFF" fill-rule="nonzero" fill-opacity="1" transform="matrix(1 0 0 1.52025 40 52.008)"/><path d="M11.4375 17.0625 7.3125 17.0625C7.10539 17.0625 6.9375 16.8946 6.9375 16.6875 6.9375 16.4804 7.10539 16.3125 7.3125 16.3125L11.4375 16.3125C11.6446 16.3125 11.8125 16.4804 11.8125 16.6875 11.8125 16.8946 11.6446 17.0625 11.4375 17.0625Z" fill="#FFFFFF" fill-rule="nonzero" fill-opacity="1" transform="matrix(1 0 0 1.52025 40 52.008)"/><path d="M16.6875 12.5625 12.5625 12.5625C12.3554 12.5625 12.1875 12.3946 12.1875 12.1875 12.1875 11.9804 12.3554 11.8125 12.5625 11.8125L16.6875 11.8125C16.8946 11.8125 17.0625 11.9804 17.0625 12.1875 17.0625 12.3946 16.8946 12.5625 16.6875 12.5625Z" fill="#FFFFFF" fill-rule="nonzero" fill-opacity="1" transform="matrix(1 0 0 1.52025 40 52.008)"/><path d="M16.6875 13.6875 12.5625 13.6875C12.3554 13.6875 12.1875 13.5196 12.1875 13.3125 12.1875 13.1054 12.3554 12.9375 12.5625 12.9375L16.6875 12.9375C16.8946 12.9375 17.0625 13.1054 17.0625 13.3125 17.0625 13.5196 16.8946 13.6875 16.6875 13.6875Z" fill="#FFFFFF" fill-rule="nonzero" fill-opacity="1" transform="matrix(1 0 0 1.52025 40 52.008)"/><path d="M16.6875 14.8125 12.5625 14.8125C12.3554 14.8125 12.1875 14.6446 12.1875 14.4375 12.1875 14.2304 12.3554 14.0625 12.5625 14.0625L16.6875 14.0625C16.8946 14.0625 17.0625 14.2304 17.0625 14.4375 17.0625 14.6446 16.8946 14.8125 16.6875 14.8125Z" fill="#FFFFFF" fill-rule="nonzero" fill-opacity="1" transform="matrix(1 0 0 1.52025 40 52.008)"/><path d="M16.6875 15.9375 12.5625 15.9375C12.3554 15.9375 12.1875 15.7696 12.1875 15.5625 12.1875 15.3554 12.3554 15.1875 12.5625 15.1875L16.6875 15.1875C16.8946 15.1875 17.0625 15.3554 17.0625 15.5625 17.0625 15.7696 16.8946 15.9375 16.6875 15.9375Z" fill="#FFFFFF" fill-rule="nonzero" fill-opacity="1" transform="matrix(1 0 0 1.52025 40 52.008)"/><path d="M16.6875 17.0625 12.5625 17.0625C12.3554 17.0625 12.1875 16.8946 12.1875 16.6875 12.1875 16.4804 12.3554 16.3125 12.5625 16.3125L16.6875 16.3125C16.8946 16.3125 17.0625 16.4804 17.0625 16.6875 17.0625 16.8946 16.8946 17.0625 16.6875 17.0625Z" fill="#FFFFFF" fill-rule="nonzero" fill-opacity="1" transform="matrix(1 0 0 1.52025 40 52.008)"/><path d="M21.9375 12.5625 17.8125 12.5625C17.6054 12.5625 17.4375 12.3946 17.4375 12.1875 17.4375 11.9804 17.6054 11.8125 17.8125 11.8125L21.9375 11.8125C22.1446 11.8125 22.3125 11.9804 22.3125 12.1875 22.3125 12.3946 22.1446 12.5625 21.9375 12.5625Z" fill="#FFFFFF" fill-rule="nonzero" fill-opacity="1" transform="matrix(1 0 0 1.52025 40 52.008)"/><path d="M21.9375 13.6875 17.8125 13.6875C17.6054 13.6875 17.4375 13.5196 17.4375 13.3125 17.4375 13.1054 17.6054 12.9375 17.8125 12.9375L21.9375 12.9375C22.1446 12.9375 22.3125 13.1054 22.3125 13.3125 22.3125 13.5196 22.1446 13.6875 21.9375 13.6875Z" fill="#FFFFFF" fill-rule="nonzero" fill-opacity="1" transform="matrix(1 0 0 1.52025 40 52.008)"/><path d="M21.9375 14.8125 17.8125 14.8125C17.6054 14.8125 17.4375 14.6446 17.4375 14.4375 17.4375 14.2304 17.6054 14.0625 17.8125 14.0625L21.9375 14.0625C22.1446 14.0625 22.3125 14.2304 22.3125 14.4375 22.3125 14.6446 22.1446 14.8125 21.9375 14.8125Z" fill="#FFFFFF" fill-rule="nonzero" fill-opacity="1" transform="matrix(1 0 0 1.52025 40 52.008)"/><path d="M21.9375 15.9375 17.8125 15.9375C17.6054 15.9375 17.4375 15.7696 17.4375 15.5625 17.4375 15.3554 17.6054 15.1875 17.8125 15.1875L21.9375 15.1875C22.1446 15.1875 22.3125 15.3554 22.3125 15.5625 22.3125 15.7696 22.1446 15.9375 21.9375 15.9375Z" fill="#FFFFFF" fill-rule="nonzero" fill-opacity="1" transform="matrix(1 0 0 1.52025 40 52.008)"/><path d="M21.9375 17.0625 17.8125 17.0625C17.6054 17.0625 17.4375 16.8946 17.4375 16.6875 17.4375 16.4804 17.6054 16.3125 17.8125 16.3125L21.9375 16.3125C22.1446 16.3125 22.3125 16.4804 22.3125 16.6875 22.3125 16.8946 22.1446 17.0625 21.9375 17.0625Z" fill="#FFFFFF" fill-rule="nonzero" fill-opacity="1" transform="matrix(1 0 0 1.52025 40 52.008)"/><path d="M0.562125 9.1875C0.355018 9.18724 0.187336 9.01912 0.187596 8.81201 0.187815 8.63745 0.308482 8.4861 0.478631 8.44703L11.9162 5.82203C12.1181 5.77616 12.319 5.90269 12.3648 6.10462 12.4105 6.30596 12.285 6.50636 12.0838 6.55297L0.646354 9.17797C0.618735 9.18439 0.590475 9.18758 0.562125 9.1875Z" fill="#FFFFFF" fill-rule="nonzero" fill-opacity="1" transform="matrix(1 0 0 1.52025 40 52.008)"/><path d="M23.4379 9.1875C23.4095 9.18758 23.3812 9.18439 23.3537 9.17797L11.9162 6.55297C11.7142 6.50711 11.5877 6.30623 11.6335 6.10425 11.6794 5.90231 11.8803 5.77579 12.0822 5.82165 12.0828 5.82176 12.0833 5.82191 12.0839 5.82203L23.5214 8.44703C23.7232 8.49337 23.8493 8.6946 23.8029 8.89646 23.7638 9.0666 23.6125 9.18727 23.4379 9.1875Z" fill="#FFFFFF" fill-rule="nonzero" fill-opacity="1" transform="matrix(1 0 0 1.52025 40 52.008)"/><path d="M23.0625 9.9375C22.8555 9.93761 22.6876 9.76991 22.6875 9.56291 22.6875 9.5628 22.6875 9.56265 22.6875 9.5625L22.6875 8.72644C22.6875 8.51933 22.8554 8.35144 23.0625 8.35144 23.2696 8.35144 23.4375 8.51933 23.4375 8.72644L23.4375 9.5625C23.4376 9.7695 23.2699 9.93739 23.0629 9.9375 23.0628 9.9375 23.0627 9.9375 23.0625 9.9375Z" fill="#FFFFFF" fill-rule="nonzero" fill-opacity="1" transform="matrix(1 0 0 1.52025 40 52.008)"/><path d="M0.9375 9.9375C0.730511 9.93761 0.562616 9.76991 0.5625 9.56291 0.5625 9.5628 0.5625 9.56265 0.5625 9.5625L0.5625 8.72644C0.5625 8.51933 0.730395 8.35144 0.9375 8.35144 1.1446 8.35144 1.3125 8.51933 1.3125 8.72644L1.3125 9.5625C1.31262 9.7695 1.14492 9.93739 0.937928 9.9375 0.937785 9.9375 0.937643 9.9375 0.9375 9.9375Z" fill="#FFFFFF" fill-rule="nonzero" fill-opacity="1" transform="matrix(1 0 0 1.52025 40 52.008)"/><text fill="#FFFFFF" fill-opacity="1" font-family="Helvetica Neue,Helvetica Neue_MSFontService,sans-serif" font-style="normal" font-variant="normal" font-weight="700" font-stretch="normal" font-size="5" text-anchor="start" direction="ltr" writing-mode="lr-tb" unicode-bidi="normal" text-decoration="none" transform="matrix(0.375 0 0 0.570094 40 97)">Created by lastspark</text><text fill="#FFFFFF" fill-opacity="1" font-family="Helvetica Neue,Helvetica Neue_MSFontService,sans-serif" font-style="normal" font-variant="normal" font-weight="700" font-stretch="normal" font-size="5" text-anchor="start" direction="ltr" writing-mode="lr-tb" unicode-bidi="normal" text-decoration="none" transform="matrix(0.375 0 0 0.570094 40 100)">from the Noun Project</text></g></g></svg>